<svg xmlns="http://www.w3.org/2000/svg" width="26" height="24" viewBox="0 0 26 24">
  <metadata><?xpacket begin="﻿" id="W5M0MpCehiHzreSzNTczkc9d"?>
<x:xmpmeta xmlns:x="adobe:ns:meta/" x:xmptk="Adobe XMP Core 5.6-c138 79.159824, 2016/09/14-01:09:01        ">
   <rdf:RDF xmlns:rdf="http://www.w3.org/1999/02/22-rdf-syntax-ns#">
      <rdf:Description rdf:about=""/>
   </rdf:RDF>
</x:xmpmeta>
                                                                                                    
                                                                                                    
                                                                                                    
                                                                                                    
                                                                                                    
                                                                                                    
                                                                                                    
                                                                                                    
                                                                                                    
                                                                                                    
                                                                                                    
                                                                                                    
                                                                                                    
                                                                                                    
                                                                                                    
                                                                                                    
                                                                                                    
                                                                                                    
                                                                                                    
                                                                                                    
                           
<?xpacket end="w"?></metadata>
<defs>
    <style>
      .cls-1 {
        fill: #ef5b70;
        fill-rule: evenodd;
      }
    </style>
  </defs>
  <path id="Forma_1_copy" data-name="Forma 1 copy" class="cls-1" d="M1763.96,2549.96h2.76l3.93,14.44a0.949,0.949,0,0,0,.92.72h12.07a0.97,0.97,0,0,0,.89-0.59l4.39-10.27a1.02,1.02,0,0,0-.08-0.93,0.947,0.947,0,0,0-.8-0.44H1774.7a0.98,0.98,0,0,0,0,1.96h11.86l-3.56,8.31h-10.7l-3.93-14.44a0.961,0.961,0,0,0-.93-0.72h-3.48A0.98,0.98,0,0,0,1763.96,2549.96Zm6.7,22.04a2.22,2.22,0,1,0-2.18-2.22A2.207,2.207,0,0,0,1770.66,2572Zm13.63,0h0.16a2.182,2.182,0,0,0,1.49-.77,2.261,2.261,0,0,0,.53-1.61A2.181,2.181,0,1,0,1784.29,2572Z" transform="translate(-1763 -2548)"/>
</svg>
