<svg xmlns="http://www.w3.org/2000/svg" width="25" height="24" viewBox="0 0 25 24">
  <metadata><?xpacket begin="﻿" id="W5M0MpCehiHzreSzNTczkc9d"?>
<x:xmpmeta xmlns:x="adobe:ns:meta/" x:xmptk="Adobe XMP Core 5.6-c138 79.159824, 2016/09/14-01:09:01        ">
   <rdf:RDF xmlns:rdf="http://www.w3.org/1999/02/22-rdf-syntax-ns#">
      <rdf:Description rdf:about=""/>
   </rdf:RDF>
</x:xmpmeta>
                                                                                                    
                                                                                                    
                                                                                                    
                                                                                                    
                                                                                                    
                                                                                                    
                                                                                                    
                                                                                                    
                                                                                                    
                                                                                                    
                                                                                                    
                                                                                                    
                                                                                                    
                                                                                                    
                                                                                                    
                                                                                                    
                                                                                                    
                                                                                                    
                                                                                                    
                                                                                                    
                           
<?xpacket end="w"?></metadata>
<defs>
    <style>
      .cls-1 {
        fill: #fff;
        stroke: #fff;
        stroke-linejoin: round;
        stroke-width: 2px;
        fill-rule: evenodd;
      }
    </style>
  </defs>
  <path id="Forma_1_copy" data-name="Forma 1 copy" class="cls-1" d="M2213.85,1491.79h2.44l3.47,13.25a0.865,0.865,0,0,0,.83.65h10.67a0.851,0.851,0,0,0,.78-0.54l3.89-9.41a0.973,0.973,0,0,0-.07-0.85,0.839,0.839,0,0,0-.71-0.41h-11.8a0.9,0.9,0,0,0,0,1.8h10.49l-3.14,7.62h-9.48l-3.47-13.24a0.86,0.86,0,0,0-.82-0.66h-3.08A0.9,0.9,0,0,0,2213.85,1491.79Zm5.93,20.21a2.038,2.038,0,1,0-1.93-2.03A1.986,1.986,0,0,0,2219.78,1512Zm12.05,0h0.14a1.869,1.869,0,0,0,1.32-.7,2.109,2.109,0,0,0,.47-1.48,1.975,1.975,0,0,0-2.06-1.89,2,2,0,0,0-1.78,2.17A1.975,1.975,0,0,0,2231.83,1512Z" transform="translate(-2212 -1489)"/>
</svg>
