<svg xmlns="http://www.w3.org/2000/svg" width="29" height="29" viewBox="0 0 29 29">
  <metadata><?xpacket begin="﻿" id="W5M0MpCehiHzreSzNTczkc9d"?>
<x:xmpmeta xmlns:x="adobe:ns:meta/" x:xmptk="Adobe XMP Core 5.6-c138 79.159824, 2016/09/14-01:09:01        ">
   <rdf:RDF xmlns:rdf="http://www.w3.org/1999/02/22-rdf-syntax-ns#">
      <rdf:Description rdf:about=""/>
   </rdf:RDF>
</x:xmpmeta>
                                                                                                    
                                                                                                    
                                                                                                    
                                                                                                    
                                                                                                    
                                                                                                    
                                                                                                    
                                                                                                    
                                                                                                    
                                                                                                    
                                                                                                    
                                                                                                    
                                                                                                    
                                                                                                    
                                                                                                    
                                                                                                    
                                                                                                    
                                                                                                    
                                                                                                    
                                                                                                    
                           
<?xpacket end="w"?></metadata>
<defs>
    <style>
      .cls-1 {
        fill: #555;
        fill-rule: evenodd;
      }
    </style>
  </defs>
  <path id="Forma_1" data-name="Forma 1" class="cls-1" d="M1487.5,45.937c4.5,0,8.16-4.473,8.16-9.969S1492,26,1487.5,26a7.433,7.433,0,0,0-5.83,3,11.152,11.152,0,0,0-2.33,6.974C1479.34,41.465,1483,45.937,1487.5,45.937Zm0-18.124c3.5,0,6.34,3.659,6.34,8.156s-2.84,8.156-6.34,8.156-6.34-3.66-6.34-8.156S1484,27.813,1487.5,27.813Zm6.34,16.312a0.906,0.906,0,0,0,0,1.813,6.355,6.355,0,0,1,6.35,6.344,0.911,0.911,0,0,1-.91.906h-23.56a0.911,0.911,0,0,1-.91-0.906,6.355,6.355,0,0,1,6.35-6.344,0.906,0.906,0,0,0,0-1.812,8.167,8.167,0,0,0-8.16,8.156A2.722,2.722,0,0,0,1475.72,55h23.56a2.722,2.722,0,0,0,2.72-2.719A8.167,8.167,0,0,0,1493.84,44.125Z" transform="translate(-1473 -26)"/>
</svg>
