<svg xmlns="http://www.w3.org/2000/svg" width="52" height="40" viewBox="0 0 52 40">
  <metadata><?xpacket begin="﻿" id="W5M0MpCehiHzreSzNTczkc9d"?>
<x:xmpmeta xmlns:x="adobe:ns:meta/" x:xmptk="Adobe XMP Core 5.6-c138 79.159824, 2016/09/14-01:09:01        ">
   <rdf:RDF xmlns:rdf="http://www.w3.org/1999/02/22-rdf-syntax-ns#">
      <rdf:Description rdf:about=""/>
   </rdf:RDF>
</x:xmpmeta>
                                                                                                    
                                                                                                    
                                                                                                    
                                                                                                    
                                                                                                    
                                                                                                    
                                                                                                    
                                                                                                    
                                                                                                    
                                                                                                    
                                                                                                    
                                                                                                    
                                                                                                    
                                                                                                    
                                                                                                    
                                                                                                    
                                                                                                    
                                                                                                    
                                                                                                    
                                                                                                    
                           
<?xpacket end="w"?></metadata>
<defs>
    <style>
      .cls-1 {
        fill: #f16d7f;
        fill-rule: evenodd;
      }
    </style>
  </defs>
  <path id="Forma_1" data-name="Forma 1" class="cls-1" d="M2067.11,3110.42a0.937,0.937,0,0,0-.93.94,0.89,0.89,0,1,1-.89-0.91,0.94,0.94,0,0,0,0-1.88,2.785,2.785,0,1,0,2.75,2.79A0.937,0.937,0,0,0,2067.11,3110.42Zm33.47,0a0.937,0.937,0,0,0-.93.94,0.89,0.89,0,1,1-.89-0.91,0.94,0.94,0,0,0,0-1.88,2.785,2.785,0,1,0,2.75,2.79A0.937,0.937,0,0,0,2100.58,3110.42Zm7.29-12.02-3.56-6.11c-1.22-2.06-2.37-3.27-4.68-3.47a0.852,0.852,0,0,0-.23-0.03h-7.13v-1.91a1.865,1.865,0,0,0-1.85-1.88h-32.56a1.867,1.867,0,0,0-1.86,1.88v23.54a1.874,1.874,0,0,0,1.86,1.88h1.93a5.562,5.562,0,0,0,10.99,0h22.49a5.562,5.562,0,0,0,10.99,0h2.81a0.937,0.937,0,0,0,.93-0.94v-12.49A0.878,0.878,0,0,0,2107.87,3098.4Zm-3.54,3.6a0.937,0.937,0,0,1,.93-0.94h0.88v1.85h-1.81V3102Zm1.26-3.82h-8.53a0.648,0.648,0,0,0-.19-0.02,0.952,0.952,0,0,1-.95-0.96v-3.77h6.9Zm-47.73-11.3h32.56v23.54h-19.64a5.56,5.56,0,0,0-10.99,0h-1.93v-23.54Zm7.43,28.24a3.765,3.765,0,1,1,3.72-3.76A3.747,3.747,0,0,1,2065.29,3115.12Zm33.47,0a3.765,3.765,0,1,1,3.72-3.76A3.747,3.747,0,0,1,2098.76,3115.12Zm5.5-4.7a5.56,5.56,0,0,0-10.99,0h-1v-19.75h6.63a3.328,3.328,0,0,1,2.57.88h-6.48a0.937,0.937,0,0,0-.93.94v4.71a2.84,2.84,0,0,0,2.58,2.83,0.852,0.852,0,0,0,.23.03h6.38a2.8,2.8,0,0,0-.77,1.94v1.85a0.93,0.93,0,0,0,.93.94h2.73v5.63h-1.88Zm-43.58-19.75h26.91a0.94,0.94,0,0,0,0-1.88h-26.91A0.94,0.94,0,0,0,2060.68,3090.67Zm20.1,11.83c-1.89,0-3.46,1.63-3.46,4.56,0.02,2.91,1.57,4.37,3.35,4.37,1.83,0,3.42-1.52,3.42-4.59C2084.09,3104.07,2082.79,3102.5,2080.78,3102.5Zm-0.06,7.74c-1.19,0-1.9-1.41-1.88-3.26,0-1.84.67-3.29,1.88-3.29,1.34,0,1.85,1.47,1.85,3.24C2082.57,3108.85,2081.99,3110.24,2080.72,3110.24Zm-5.95-9.42c0-2.77-1.32-4.34-3.33-4.34-1.89,0-3.46,1.64-3.46,4.54,0.03,2.93,1.57,4.39,3.35,4.39C2073.18,3105.41,2074.77,3103.89,2074.77,3100.82Zm-5.24.14c0-1.84.64-3.29,1.85-3.29,1.34,0,1.85,1.47,1.85,3.24,0,1.93-.58,3.31-1.85,3.31C2070.17,3104.22,2069.48,3102.81,2069.53,3100.96Zm10.08-4.32-8.41,14.75h1.23l8.42-14.75h-1.24Zm12.97,10.33L2096,3104l-3.42-2.97,2.21-3.98-4.2-1.6,0.73-4.5-4.5-.05-0.82-4.49-4.24,1.52-2.29-3.93-3.47,2.9-3.47-2.9-2.29,3.93-4.24-1.52-0.82,4.49-4.5.05,0.74,4.5-4.22,1.6,2.22,3.98L2056,3104l3.42,2.97-2.22,3.98,4.21,1.6-0.73,4.5,4.5,0.05,0.82,4.49,4.24-1.52,2.29,3.93,3.47-2.9,3.47,2.9,2.29-3.93,4.24,1.52,0.82-4.49,4.5-.05-0.74-4.5,4.21-1.6Zm-2.66,3.78-1.46.55,0.25,1.57,0.37,2.28-2.28.02-1.56.02-0.28,1.56-0.42,2.28-2.15-.77-1.47-.53-0.79,1.36-1.16,2-1.76-1.48-1.21-1.01-1.21,1.01-1.76,1.48-1.16-2-0.79-1.36-1.47.53-2.15.76-0.42-2.27-0.29-1.56-1.56-.02-2.28-.02,0.37-2.29,0.26-1.56-1.46-.56-2.14-.81,1.13-2.01,0.76-1.38-1.18-1.03-1.73-1.51,1.73-1.51,1.18-1.03-0.76-1.38-1.12-2.02,2.13-.81,1.46-.56-0.25-1.56-0.38-2.28,2.29-.03,1.56-.01,0.28-1.56,0.42-2.28,2.15,0.77,1.47,0.52,0.79-1.36,1.16-1.99,1.76,1.47,1.21,1.01,1.2-1.01,1.77-1.47,1.16,2,0.79,1.36,1.47-.53,2.15-.77,0.42,2.28,0.28,1.56,1.56,0.01,2.29,0.03-0.37,2.28-0.26,1.57,1.46,0.55,2.13,0.81-1.12,2.02-0.76,1.38,1.18,1.03,1.73,1.51-1.73,1.51-1.18,1.03,0.76,1.38,1.12,2.01Z" transform="translate(-2056 -3084)"/>
</svg>
